<svg width="24" height="16" viewBox="0 0 24 16" fill="none" xmlns="http://www.w3.org/2000/svg">
<path d="M1 0C0.447715 0 0 0.447715 0 1C0 1.55228 0.447715 2 1 2V0ZM23 2C23.5523 2 24 1.55228 24 1C24 0.447715 23.5523 0 23 0V2ZM1 2H23V0H1V2Z" fill="black"/>
<path d="M1 7C0.447715 7 0 7.44772 0 8C0 8.55228 0.447715 9 1 9V7ZM23 9C23.5523 9 24 8.55228 24 8C24 7.44772 23.5523 7 23 7V9ZM1 9H23V7H1V9Z" fill="black"/>
<path d="M1 14C0.447715 14 0 14.4477 0 15C0 15.5523 0.447715 16 1 16V14ZM23 16C23.5523 16 24 15.5523 24 15C24 14.4477 23.5523 14 23 14V16ZM1 16H23V14H1V16Z" fill="black"/>
</svg>
