<svg width="24" height="24" viewBox="0 0 24 24" fill="none" xmlns="http://www.w3.org/2000/svg">
<path d="M3.6971 1.28302C3.3121 0.887049 2.6879 0.887049 2.3029 1.28302C1.91791 1.679 1.91791 2.321 2.3029 2.71698L3.6971 1.28302ZM21.1245 22.0753C21.5095 22.4713 22.1337 22.4713 22.5187 22.0753C22.9037 21.6794 22.9037 21.0374 22.5187 20.6414L21.1245 22.0753ZM2.3029 2.71698L21.1245 22.0753L22.5187 20.6414L3.6971 1.28302L2.3029 2.71698Z" fill="black"/>
<path d="M22.6971 2.71698C23.0821 2.321 23.0821 1.679 22.6971 1.28302C22.3121 0.887049 21.6879 0.887049 21.3029 1.28302L22.6971 2.71698ZM2.48126 20.6414C2.09626 21.0374 2.09626 21.6794 2.48126 22.0753C2.86626 22.4713 3.49046 22.4713 3.87546 22.0753L2.48126 20.6414ZM21.3029 1.28302L2.48126 20.6414L3.87546 22.0753L22.6971 2.71698L21.3029 1.28302Z" fill="black"/>
</svg>
