<svg width="0" height="0" class="hidden">
  <symbol fill="none" xmlns="http://www.w3.org/2000/svg" viewBox="0 0 19 19" id="star">
    <path d="M4.32789 6.62545L4.2358 5.6297H4.23579L4.32789 6.62545ZM7.6347 4.08644L6.70254 3.72437L6.70254 3.72437L7.6347 4.08644ZM2.96557 10.1778L2.28083 10.9066L2.28083 10.9066L2.96557 10.1778ZM4.11608 6.64504L4.20818 7.64079H4.20818L4.11608 6.64504ZM4.56188 14.2745L3.58419 14.0645L3.58419 14.0645L4.56188 14.2745ZM4.76809 12.338L3.79541 12.5702L4.76809 12.338ZM3.44083 10.6243L4.12557 9.89555L3.44083 10.6243ZM4.6901 12.0841L5.62535 11.7301L4.6901 12.0841ZM7.29832 16.3654L7.94219 17.1305L7.29832 16.3654ZM4.72669 17.9802L4.45546 18.9427L4.72669 17.9802ZM4.49617 14.5804L5.47386 14.7904L4.49617 14.5804ZM4.25294 17.6784L3.49837 18.3346L4.25294 17.6784ZM11.7017 16.3654L11.0578 17.1305L11.7017 16.3654ZM9.81075 15.1282L9.64806 16.1149L9.81075 15.1282ZM9.18925 15.1282L9.35194 16.1149L9.18925 15.1282ZM14.5038 14.5804L13.5261 14.7904L13.5261 14.7904L14.5038 14.5804ZM14.7471 17.6784L15.5016 18.3346L14.7471 17.6784ZM14.2733 17.9802L14.5445 18.9427L14.2733 17.9802ZM15.5592 10.6243L16.2439 11.3531L15.5592 10.6243ZM14.3099 12.0841L15.2451 12.4381L14.3099 12.0841ZM14.4381 14.2745L15.4158 14.0645V14.0645L14.4381 14.2745ZM14.2319 12.338L15.2046 12.5702L14.2319 12.338ZM14.8839 6.64504L14.7918 7.64079L14.8839 6.64504ZM16.0344 10.1778L15.3497 9.44902L15.3497 9.44902L16.0344 10.1778ZM11.3653 4.08644L10.4331 4.4485V4.4485L11.3653 4.08644ZM14.6721 6.62545L14.7642 5.6297L14.6721 6.62545ZM11.3292 3.99351L12.2614 3.63145V3.63145L11.3292 3.99351ZM7.67079 3.99351L8.60295 4.35557L8.60295 4.35557L7.67079 3.99351ZM9.5 1V2V1ZM10.3971 4.35557L10.4331 4.4485L12.2975 3.72438L12.2614 3.63145L10.3971 4.35557ZM14.58 7.6212L14.7918 7.64079L14.976 5.64929L14.7642 5.6297L14.58 7.6212ZM15.3497 9.44902L14.8744 9.89555L16.2439 11.3531L16.7192 10.9066L15.3497 9.44902ZM13.4604 14.4846L13.5261 14.7904L15.4815 14.3703L15.4158 14.0645L13.4604 14.4846ZM5.47386 14.7904L5.53957 14.4846L3.58419 14.0645L3.51848 14.3703L5.47386 14.7904ZM4.12557 9.89555L3.65031 9.44902L2.28083 10.9066L2.75609 11.3531L4.12557 9.89555ZM4.20818 7.64079L4.41999 7.6212L4.23579 5.6297L4.02399 5.64929L4.20818 7.64079ZM8.56685 4.4485L8.60295 4.35557L6.73864 3.63144L6.70254 3.72437L8.56685 4.4485ZM4.41999 7.6212C4.98487 7.56895 5.48576 7.52393 5.89834 7.44119C6.33513 7.35361 6.75439 7.20994 7.14056 6.91343L5.92255 5.3271C5.86247 5.37323 5.7657 5.42798 5.50512 5.48023C5.22034 5.53734 4.84252 5.57358 4.2358 5.6297L4.41999 7.6212ZM6.70254 3.72437C6.47632 4.3068 6.33224 4.67452 6.19505 4.94405C6.06761 5.19444 5.98462 5.27945 5.92255 5.3271L7.14056 6.91343C7.52475 6.61844 7.77437 6.25026 7.97746 5.85126C8.17079 5.47141 8.35515 4.99354 8.56685 4.4485L6.70254 3.72437ZM3.65031 9.44902C2.91388 8.75711 2.44512 8.31323 2.17028 7.96945C1.88154 7.60829 2.04963 7.65388 1.98556 7.85064L0.0838609 7.23132C-0.185366 8.05801 0.236152 8.75305 0.608133 9.21833C0.994011 9.701 1.59325 10.2606 2.28083 10.9066L3.65031 9.44902ZM4.02399 5.64929C3.09987 5.73476 2.29078 5.80689 1.69649 5.95173C1.11945 6.09236 0.357194 6.39202 0.0838609 7.23132L1.98556 7.85064C1.91737 8.06001 1.73705 8.00038 2.17005 7.89485C2.58579 7.79353 3.21481 7.73266 4.20818 7.64079L4.02399 5.64929ZM5.53957 14.4846C5.72999 13.5983 5.91632 12.8415 5.74077 12.1059L3.79541 12.5702C3.84071 12.76 3.81595 12.9857 3.58419 14.0645L5.53957 14.4846ZM2.75609 11.3531C3.54878 12.0979 3.68803 12.2615 3.75485 12.4381L5.62535 11.7301C5.35619 11.019 4.77459 10.5053 4.12557 9.89555L2.75609 11.3531ZM5.74077 12.1059C5.71033 11.9783 5.67178 11.8528 5.62535 11.7301L3.75485 12.4381C3.7711 12.481 3.78466 12.5251 3.79541 12.5702L5.74077 12.1059ZM6.65445 15.6002C5.94104 16.2006 5.46948 16.5955 5.11669 16.8331C4.70271 17.1118 4.7617 16.9511 4.99791 17.0176L4.45546 18.9427C5.18065 19.147 5.83124 18.7631 6.23373 18.4921C6.6974 18.1799 7.26717 17.6985 7.94219 17.1305L6.65445 15.6002ZM3.51848 14.3703C3.32954 15.2498 3.16962 15.9879 3.10799 16.5518C3.0539 17.0468 3.0189 17.7833 3.49837 18.3346L5.0075 17.0222C5.14829 17.184 5.04094 17.2744 5.09615 16.7691C5.14383 16.3328 5.27486 15.7167 5.47386 14.7904L3.51848 14.3703ZM4.99791 17.0176C5.00585 17.0199 5.00838 17.0232 5.0075 17.0222L3.49837 18.3346C3.7506 18.6246 4.08209 18.8375 4.45546 18.9427L4.99791 17.0176ZM12.3455 15.6002C11.9044 15.229 11.5205 14.9046 11.1789 14.6686C10.8229 14.4228 10.4378 14.2181 9.97345 14.1416L9.64806 16.1149C9.70704 16.1246 9.81158 16.1549 10.0423 16.3143C10.2873 16.4835 10.5872 16.7345 11.0578 17.1305L12.3455 15.6002ZM7.94219 17.1305C8.41276 16.7345 8.71267 16.4835 8.95768 16.3143C9.18842 16.1549 9.29296 16.1246 9.35194 16.1149L9.02655 14.1416C8.56217 14.2181 8.17709 14.4228 7.82114 14.6686C7.47945 14.9046 7.09559 15.229 6.65445 15.6002L7.94219 17.1305ZM9.97345 14.1416C9.65985 14.0899 9.34015 14.0899 9.02655 14.1416L9.35194 16.1149C9.45007 16.0987 9.54993 16.0987 9.64806 16.1149L9.97345 14.1416ZM13.5261 14.7904C13.7251 15.7167 13.8562 16.3328 13.9038 16.7691C13.9591 17.2744 13.8517 17.184 13.9925 17.0222L15.5016 18.3346C15.9811 17.7833 15.9461 17.0468 15.892 16.5518C15.8304 15.9879 15.6705 15.2498 15.4815 14.3703L13.5261 14.7904ZM11.0578 17.1305C11.7328 17.6985 12.3026 18.1799 12.7663 18.4921C13.1688 18.7631 13.8194 19.147 14.5445 18.9427L14.0021 17.0176C14.2383 16.9511 14.2973 17.1118 13.8833 16.8331C13.5305 16.5955 13.059 16.2006 12.3455 15.6002L11.0578 17.1305ZM13.9925 17.0222C13.9916 17.0232 13.9942 17.0199 14.0021 17.0176L14.5445 18.9427C14.9179 18.8375 15.2494 18.6246 15.5016 18.3346L13.9925 17.0222ZM14.8744 9.89555C14.2254 10.5053 13.6438 11.019 13.3746 11.7301L15.2451 12.4381C15.312 12.2615 15.4512 12.0979 16.2439 11.3531L14.8744 9.89555ZM15.4158 14.0645C15.184 12.9857 15.1593 12.76 15.2046 12.5702L13.2592 12.1059C13.0837 12.8415 13.27 13.5983 13.4604 14.4846L15.4158 14.0645ZM13.3746 11.7301C13.3282 11.8528 13.2897 11.9783 13.2592 12.1059L15.2046 12.5702C15.2153 12.5251 15.2289 12.481 15.2451 12.4381L13.3746 11.7301ZM14.7918 7.64079C15.7852 7.73266 16.4142 7.79353 16.83 7.89485C17.2629 8.00038 17.0826 8.06001 17.0144 7.85064L18.9161 7.23132C18.6428 6.39202 17.8805 6.09236 17.3035 5.95173C16.7092 5.80689 15.9001 5.73476 14.976 5.64929L14.7918 7.64079ZM16.7192 10.9066C17.4068 10.2606 18.006 9.701 18.3919 9.21833C18.7638 8.75305 19.1854 8.05801 18.9161 7.23132L17.0144 7.85064C16.9504 7.65388 17.1185 7.60829 16.8297 7.96945C16.5549 8.31323 16.0861 8.75711 15.3497 9.44902L16.7192 10.9066ZM10.4331 4.4485C10.6448 4.99354 10.8292 5.47141 11.0225 5.85126C11.2256 6.25026 11.4752 6.61844 11.8594 6.91343L13.0774 5.3271C13.0154 5.27945 12.9324 5.19444 12.805 4.94405C12.6678 4.67452 12.5237 4.3068 12.2975 3.72438L10.4331 4.4485ZM14.7642 5.6297C14.1575 5.57358 13.7797 5.53734 13.4949 5.48023C13.2343 5.42798 13.1375 5.37323 13.0774 5.3271L11.8594 6.91343C12.2456 7.20994 12.6649 7.35361 13.1017 7.44119C13.5142 7.52393 14.0151 7.56895 14.58 7.6212L14.7642 5.6297ZM12.2614 3.63145C11.8857 2.66422 11.5667 1.83652 11.2481 1.26284C10.9577 0.740076 10.4395 0 9.5 0V2C9.22697 2 9.23578 1.75884 9.49964 2.23391C9.73521 2.65807 9.99759 3.32712 10.3971 4.35557L12.2614 3.63145ZM8.60295 4.35557C9.00241 3.32712 9.26479 2.65807 9.50036 2.23391C9.76422 1.75884 9.77303 2 9.5 2V0C8.56049 0 8.04227 0.740075 7.75193 1.26284C7.43331 1.83652 7.11432 2.66422 6.73864 3.63144L8.60295 4.35557Z" fill="#FF6541"></path>
  </symbol>
  <symbol fill="none" xmlns="http://www.w3.org/2000/svg" viewBox="0 0 22 18" id="arrow">
    <path d="M6 6.5L11 11.5L16 6.5" stroke="#555555" stroke-width="2" stroke-linecap="round" stroke-linejoin="round"></path>
  </symbol>
  <symbol fill="none" xmlns="http://www.w3.org/2000/svg" viewBox="0 0 7 12" id="arrow-left">
    <path d="M1 11L6 6L1 1" stroke="#1882FF" stroke-width="2" stroke-linecap="round" stroke-linejoin="round"></path>
  </symbol>
  <symbol fill="none" xmlns="http://www.w3.org/2000/svg" viewBox="0 0 24 24" id="copy">
    <path d="M14 7V7C14 6.06812 14 5.60218 13.8478 5.23463C13.6448 4.74458 13.2554 4.35523 12.7654 4.15224C12.3978 4 11.9319 4 11 4H8C6.11438 4 5.17157 4 4.58579 4.58579C4 5.17157 4 6.11438 4 8V11C4 11.9319 4 12.3978 4.15224 12.7654C4.35523 13.2554 4.74458 13.6448 5.23463 13.8478C5.60218 14 6.06812 14 7 14V14" stroke-width="2"></path>
    <rect x="10" y="10" width="10" height="10" rx="2"  stroke-width="2"></rect>
  </symbol>
  <symbol fill="none" xmlns="http://www.w3.org/2000/svg" viewBox="0 0 34 31" id="telegram">
    <path d="M34 1.09818L28.6219 29.7094C28.6219 29.7094 27.8694 31.6932 25.8022 30.7418L13.3935 20.7018L13.3359 20.6722C15.0121 19.084 28.0096 6.75192 28.5776 6.19293C29.457 5.32719 28.9111 4.8118 27.89 5.46577L8.6911 18.3319L1.2842 15.702C1.2842 15.702 0.118566 15.2644 0.0064293 14.3131C-0.107183 13.3601 1.32256 12.8448 1.32256 12.8448L31.5182 0.344552C31.5182 0.344552 34 -0.806128 34 1.09818V1.09818Z" fill="#1DA60C"></path>
  </symbol>
  <symbol fill="none" xmlns="http://www.w3.org/2000/svg" viewBox="0 0 39 25" id="vk">
    <path d="M21.2417 25C7.91693 25 0.316677 15.6156 0 0H6.67458C6.89382 11.4615 11.8145 16.3163 15.7121 17.3173V0H21.9969V9.88488C25.8457 9.45946 29.8894 4.95495 31.2536 0H37.5384C37.0244 2.56978 35.9997 5.00295 34.5285 7.14732C33.0573 9.29169 31.1712 11.1011 28.9881 12.4625C31.4249 13.7063 33.5772 15.467 35.303 17.6281C37.0288 19.7893 38.2888 22.3018 39 25H32.0818C31.4434 22.6564 30.1459 20.5586 28.3519 18.9693C26.5579 17.3801 24.3472 16.3701 21.9969 16.0661V25H21.2417V25Z" fill="#1DA60C"></path>
  </symbol>
  <symbol fill="none" xmlns="http://www.w3.org/2000/svg" viewBox="0 0 24 24" id="close">
    <path d="M3.6971 1.28302C3.3121 0.887049 2.6879 0.887049 2.3029 1.28302C1.91791 1.679 1.91791 2.321 2.3029 2.71698L3.6971 1.28302ZM21.1245 22.0753C21.5095 22.4713 22.1337 22.4713 22.5187 22.0753C22.9037 21.6794 22.9037 21.0374 22.5187 20.6414L21.1245 22.0753ZM2.3029 2.71698L21.1245 22.0753L22.5187 20.6414L3.6971 1.28302L2.3029 2.71698Z" fill="black"></path>
    <path d="M22.6971 2.71698C23.0821 2.321 23.0821 1.679 22.6971 1.28302C22.3121 0.887049 21.6879 0.887049 21.3029 1.28302L22.6971 2.71698ZM2.48126 20.6414C2.09626 21.0374 2.09626 21.6794 2.48126 22.0753C2.86626 22.4713 3.49046 22.4713 3.87546 22.0753L2.48126 20.6414ZM21.3029 1.28302L2.48126 20.6414L3.87546 22.0753L22.6971 2.71698L21.3029 1.28302Z" fill="black"></path>
  </symbol>
</svg>