<svg width="24" height="25" viewBox="0 0 24 25" fill="none" xmlns="http://www.w3.org/2000/svg">
<path d="M16.5 5.75H21" stroke="#158908" stroke-width="2" stroke-linecap="round" stroke-linejoin="round"/>
<path d="M18.75 3.5V8" stroke="#158908" stroke-width="2" stroke-linecap="round" stroke-linejoin="round"/>
<path d="M2.90527 20.7491C3.82736 19.1531 5.15322 17.8278 6.74966 16.9064C8.34611 15.985 10.1569 15.5 12.0002 15.5C13.8434 15.5 15.6542 15.9851 17.2506 16.9065C18.8471 17.8279 20.1729 19.1533 21.0949 20.7493" stroke="#158908" stroke-width="2" stroke-linecap="round" stroke-linejoin="round"/>
<path d="M17.6302 11.5796C17.2291 12.6625 16.5239 13.6066 15.5993 14.2984C14.6747 14.9902 13.5701 15.4004 12.418 15.4796C11.266 15.5588 10.1155 15.3037 9.10495 14.745C8.09437 14.1862 7.26659 13.3476 6.72108 12.3298C6.17557 11.312 5.93553 10.1583 6.02978 9.0074C6.12403 7.85648 6.54857 6.75726 7.2524 5.84177C7.95623 4.92629 8.90942 4.23348 9.99745 3.84659C11.0855 3.4597 12.2621 3.39518 13.3859 3.66077" stroke="#158908" stroke-width="2" stroke-linecap="round" stroke-linejoin="round"/>
</svg>
