<svg width="39" height="25" viewBox="0 0 39 25" fill="none" xmlns="http://www.w3.org/2000/svg">
<path d="M21.2417 25C7.91693 25 0.316677 15.6156 0 0H6.67458C6.89382 11.4615 11.8145 16.3163 15.7121 17.3173V0H21.9969V9.88488C25.8457 9.45946 29.8894 4.95495 31.2536 0H37.5384C37.0244 2.56978 35.9997 5.00295 34.5285 7.14732C33.0573 9.29169 31.1712 11.1011 28.9881 12.4625C31.4249 13.7063 33.5772 15.467 35.303 17.6281C37.0288 19.7893 38.2888 22.3018 39 25H32.0818C31.4434 22.6564 30.1459 20.5586 28.3519 18.9693C26.5579 17.3801 24.3472 16.3701 21.9969 16.0661V25H21.2417V25Z" fill="#1DA60C"/>
</svg>
